<?xml version="1.0" encoding="UTF-8"?>
<!DOCTYPE svg PUBLIC "-//W3C//DTD SVG 1.1//EN" "http://www.w3.org/Graphics/SVG/1.1/DTD/svg11.dtd">
<!-- Creator: CorelDRAW 2019 (64 Bit) -->
<svg xmlns="http://www.w3.org/2000/svg" xml:space="preserve" width="78.3623mm" height="14.3993mm" version="1.1" style="shape-rendering:geometricPrecision; text-rendering:geometricPrecision; image-rendering:optimizeQuality; fill-rule:evenodd; clip-rule:evenodd"
viewBox="0 0 7050.79 1295.6"
 xmlns:xlink="http://www.w3.org/1999/xlink"
 xmlns:xodm="http://www.corel.com/coreldraw/odm/2003">
 <defs>
  <style type="text/css">
   <![CDATA[
    .fil0 {fill:#6666CC;fill-rule:nonzero}
    .fil1 {fill:#FD5F7D;fill-rule:nonzero}
   ]]>
  </style>
 </defs>
 <g id="Camada_x0020_1">
  <metadata id="CorelCorpID_0Corel-Layer"/>
  <g id="_2061170550112">
   <path class="fil0" d="M-0 52.43c49.24,-9.38 103.46,-16.71 162.65,-21.98 59.2,-5.27 118.1,-7.91 176.71,-7.91 60.96,0 122.21,4.98 183.75,14.95 61.54,9.96 116.93,29.89 166.17,59.78 49.24,29.89 89.38,71.5 120.45,124.84 31.06,53.34 46.6,122.8 46.6,208.37 0,75.03 -13.49,139.21 -40.44,192.55 -26.97,53.33 -62.71,97.29 -107.26,131.87 -44.55,34.59 -95.25,59.79 -152.11,75.62 -56.85,15.83 -115.76,23.74 -176.71,23.74 -5.86,0 -15.24,0 -28.14,0 -12.89,0 -26.37,-0.3 -40.44,-0.88 -14.06,-0.58 -27.84,-1.47 -41.32,-2.64 -13.48,-1.17 -23.15,-2.34 -29.02,-3.52l0 423.77 -240.9 0 0 -1218.56zm358.71 177.6c-23.45,0 -45.72,0.88 -66.82,2.64 -21.1,1.75 -38.1,3.81 -51,6.15l0 399.16c4.7,1.17 11.72,2.34 21.11,3.51 9.38,1.18 19.34,2.05 29.89,2.65 10.55,0.58 20.8,0.87 30.77,0.87 9.96,0 17.28,0 21.98,0 31.64,0 63,-2.92 94.07,-8.79 31.06,-5.86 58.91,-16.7 83.53,-32.53 24.62,-15.83 44.25,-37.81 58.9,-65.94 14.66,-28.13 21.98,-65.05 21.98,-110.77 0,-38.69 -7.03,-70.63 -21.1,-95.83 -14.06,-25.2 -32.53,-45.43 -55.39,-60.66 -22.85,-15.24 -48.94,-25.8 -78.24,-31.65 -29.31,-5.86 -59.2,-8.79 -89.68,-8.79zm610.46 847.54l218.03 0 0 -492.34 -218.03 0 0 -193.42 395.63 0 26.38 116.05 7.04 0c32.82,-38.68 70.33,-70.92 112.53,-96.71 42.2,-25.8 91.43,-38.69 147.71,-38.69 70.33,0 125.72,25.8 166.16,77.37 40.44,51.58 60.67,137.74 60.67,258.49l-205.73 0c0,-42.21 -6.15,-72.97 -18.46,-92.32 -12.31,-19.35 -31.94,-29.02 -58.91,-29.02 -46.89,0 -84.7,11.72 -113.42,35.17 -28.72,23.44 -53.04,50.41 -72.97,80.88l0 374.54 381.56 0 0 193.42 -828.19 0 0 -193.42zm1021.91 -246.17c0,-73.85 11.14,-139.5 33.41,-196.94 22.27,-57.44 53.92,-106.09 94.95,-145.95 41.03,-39.85 89.97,-70.04 146.82,-90.55 56.86,-20.51 120.45,-30.77 190.79,-30.77 73.85,0 139.79,11.14 197.81,33.41 58.03,22.28 106.97,53.64 146.82,94.07 39.86,40.44 70.05,89.39 90.56,146.82 20.51,57.44 30.77,120.75 30.77,189.91 0,73.84 -11.14,139.49 -33.41,196.93 -22.28,57.44 -53.92,106.09 -94.95,145.95 -41.03,39.85 -89.98,70.04 -146.82,90.55 -56.86,20.51 -120.45,30.77 -190.79,30.77 -73.85,0 -139.8,-11.14 -197.82,-33.41 -58.03,-22.28 -106.96,-53.64 -146.82,-94.07 -39.85,-40.44 -70.04,-89.39 -90.55,-146.82 -20.51,-57.44 -30.77,-120.75 -30.77,-189.91zm235.62 0c0,38.68 5.27,74.44 15.83,107.25 10.55,32.82 25.79,61.54 45.72,86.16 19.93,24.62 43.96,43.67 72.09,57.15 28.14,13.48 60.37,20.22 96.72,20.22 67.99,0 123.38,-21.68 166.17,-65.06 42.78,-43.37 64.18,-111.95 64.18,-205.72 0,-80.89 -19.93,-146.24 -59.79,-196.06 -39.86,-49.83 -96.71,-74.73 -170.56,-74.73 -32.82,0 -63.31,4.98 -91.43,14.95 -28.14,9.96 -52.47,26.08 -72.98,48.35 -20.51,22.28 -36.63,50.41 -48.35,84.41 -11.72,33.99 -17.58,75.02 -17.58,123.09zm1438.65 196.93c0,-23.44 -14.36,-42.2 -43.08,-56.26 -28.72,-14.07 -64.18,-26.97 -106.38,-38.69 -42.2,-11.72 -88.5,-23.74 -138.92,-36.04 -50.41,-12.31 -96.71,-29.31 -138.91,-50.99 -42.2,-21.69 -77.67,-49.24 -106.39,-82.64 -28.71,-33.41 -43.07,-76.49 -43.07,-129.24 0,-43.38 9.66,-81.47 29.01,-114.3 19.35,-32.82 45.72,-60.66 79.13,-83.53 33.41,-22.85 73.27,-40.15 119.57,-51.87 46.3,-11.72 96.42,-17.58 150.34,-17.58 57.44,0 107.85,4.1 151.22,12.31 43.37,8.21 81.18,18.17 113.42,29.89 32.24,11.72 59.78,24.91 82.64,39.56 22.85,14.66 42.5,27.85 58.91,39.56l-96.72 156.5c-17.58,-10.55 -37.81,-21.39 -60.66,-32.53 -22.86,-11.14 -46.89,-21.4 -72.1,-30.77 -25.2,-9.38 -51.57,-17 -79.13,-22.86 -27.54,-5.86 -54.8,-8.79 -81.76,-8.79 -49.24,0 -89.1,6.45 -119.57,19.35 -30.48,12.89 -45.72,32.82 -45.72,59.79 0,21.1 14.36,38.1 43.08,50.99 28.72,12.89 64.18,24.91 106.38,36.04 42.2,11.14 88.51,23.15 138.92,36.04 50.41,12.89 96.71,29.6 138.91,50.12 42.21,20.51 77.67,47.18 106.39,80.01 28.72,32.82 43.08,75.02 43.08,126.61 0,89.09 -32.54,159.13 -97.6,210.12 -65.05,50.99 -161.47,76.49 -289.25,76.49 -100.82,0 -187.85,-14.95 -261.12,-44.84 -73.27,-29.9 -132.17,-64.77 -176.71,-104.63l105.5 -165.29c15.24,12.89 35.46,27.25 60.67,43.08 25.2,15.82 53.63,30.18 85.28,43.08 31.64,12.89 65.35,23.74 101.11,32.53 35.75,8.79 71.22,13.19 106.38,13.19 37.51,0 69.75,-6.45 96.71,-19.35 26.97,-12.89 40.44,-34.58 40.44,-65.06zm1261.05 149.46c-15.23,14.07 -34.87,27.85 -58.9,41.33 -24.03,13.48 -52.17,26.08 -84.41,37.81 -32.24,11.71 -67.7,21.1 -106.38,28.13 -38.68,7.04 -79.71,10.55 -123.09,10.55 -75.02,0 -142.14,-10.55 -201.33,-31.65 -59.2,-21.1 -109.31,-51.87 -150.34,-92.32 -41.03,-40.44 -72.39,-89.09 -94.07,-145.94 -21.69,-56.86 -32.54,-121.62 -32.54,-194.3 0,-77.37 12.31,-145.07 36.93,-203.1 24.62,-58.03 58.32,-106.38 101.11,-145.07 42.79,-38.68 92.9,-67.7 150.34,-87.03 57.44,-19.35 119.57,-29.02 186.39,-29.02 44.55,0 90.56,5.86 138.03,17.58 47.48,11.72 91.15,31.95 131,60.66 39.86,28.72 72.4,67.11 97.6,115.18 25.2,48.07 37.8,109.02 37.8,182.87 0,50.41 -5.86,104.92 -17.58,163.53l-633.01 0c1.17,37.51 9.08,69.17 23.74,94.95 14.65,25.79 33.99,46.89 58.03,63.3 24.03,16.41 51.57,28.43 82.64,36.04 31.07,7.62 64.18,11.44 99.35,11.44 70.33,0 128.06,-8.21 173.2,-24.62 45.13,-16.41 81.76,-36.34 109.9,-59.79l75.61 149.46zm-379.81 -627.74c-30.48,0 -59.2,4.1 -86.15,12.61 -26.97,8.21 -51.29,20.51 -72.98,36.63 -21.68,16.12 -39.56,36.05 -53.63,60.08 -14.06,23.74 -22.27,50.7 -24.62,80.59l432.56 0c0,-58.61 -16.12,-104.91 -48.35,-138.91 -32.24,-34 -81.19,-51 -146.83,-51zm573.53 527.52l309.48 0 0 -492.34 -309.48 0 0 -193.42 538.06 0 0 685.77 325.3 0 0 193.42 -863.36 0 0 -193.42zm267.28 -924.91c0,-36.34 13.48,-67.4 40.44,-93.2 26.96,-25.79 64.47,-38.68 112.53,-38.68 49.24,0 88.5,12.89 117.81,38.68 29.31,25.8 43.96,56.86 43.96,93.2 0,37.51 -14.65,68.28 -43.96,92.32 -29.31,24.03 -68.57,36.04 -117.81,36.04 -48.07,0 -85.58,-12.01 -112.53,-36.04 -26.97,-24.03 -40.44,-54.8 -40.44,-92.32zm816.18 298.92c46.9,-21.1 101.11,-39.27 162.65,-54.51 61.54,-15.23 134.52,-22.85 218.92,-22.85 60.96,0 112.83,7.32 155.62,21.98 42.78,14.65 77.37,35.46 103.74,62.42 26.38,26.97 45.43,59.2 57.14,96.72 11.72,37.51 17.59,79.71 17.59,126.6 0,59.79 -2.05,110.78 -6.15,152.98 -4.1,42.21 -6.15,79.72 -6.15,112.54 0,24.62 1.17,52.16 3.52,82.64 2.34,16.41 4.1,32.23 5.27,47.47l114.3 0 0 193.42 -295.12 0 -23.16 -119.57 -8.79 0c-23.15,36.34 -56.56,67.7 -99.64,94.07 -43.08,26.38 -101.39,39.56 -174.66,39.56 -87.33,0 -156.79,-23.44 -208.08,-70.33 -51.28,-46.89 -76.78,-109.02 -76.78,-186.39 0,-49.24 9.09,-91.73 26.96,-127.48 18.18,-35.76 44.26,-65.06 78.84,-87.92 34.29,-22.86 75.61,-39.86 123.97,-51 48.35,-11.14 102.28,-16.7 161.47,-16.7 21.1,0 43.08,1.17 66.53,3.51 23.15,2.35 51.87,4.7 85.57,7.04 2.35,-11.72 3.52,-23.44 3.52,-35.16l0 -33.41c0,-44.55 -12.89,-76.49 -38.38,-95.83 -25.5,-19.35 -63.31,-29.02 -113.42,-29.02 -59.49,0 -112.83,7.62 -160.6,22.86 -47.77,15.24 -87.93,30.48 -120.45,45.72l-54.22 -179.36zm299.22 645.33c55.69,0 97.3,-10.26 125.14,-30.77 27.84,-20.51 48.35,-42.5 60.96,-65.94l0 -105.5c-11.72,-2.35 -29.02,-4.98 -52.17,-7.92 -23.15,-2.92 -48.06,-4.39 -74.73,-4.39 -21.98,0 -43.96,2.05 -66.23,6.15 -21.98,4.1 -41.61,10.55 -58.91,19.35 -17.58,8.79 -31.36,20.22 -41.91,34.28 -10.26,14.07 -15.53,31.07 -15.53,51 0,32.82 9.67,58.31 28.72,76.49 19.05,18.17 50.7,27.25 94.66,27.25z"/>
   <path class="fil1" d="M20.77 31.65c49.24,-9.38 103.46,-16.71 162.65,-21.98 59.2,-5.27 118.1,-7.91 176.71,-7.91 60.96,0 122.21,4.98 183.75,14.95 61.54,9.96 116.93,29.89 166.17,59.78 49.24,29.89 89.38,71.5 120.45,124.84 31.06,53.34 46.6,122.8 46.6,208.37 0,75.03 -13.49,139.21 -40.44,192.55 -26.97,53.33 -62.71,97.29 -107.26,131.87 -44.55,34.59 -95.25,59.79 -152.11,75.62 -56.85,15.83 -115.76,23.74 -176.71,23.74 -5.86,0 -15.24,0 -28.14,0 -12.89,0 -26.37,-0.3 -40.44,-0.88 -14.06,-0.58 -27.84,-1.47 -41.32,-2.64 -13.48,-1.17 -23.15,-2.34 -29.02,-3.52l0 423.77 -240.9 0 0 -1218.56zm358.71 177.6c-23.45,0 -45.72,0.88 -66.82,2.64 -21.1,1.75 -38.1,3.81 -51,6.15l0 399.16c4.7,1.17 11.72,2.34 21.11,3.51 9.38,1.18 19.34,2.05 29.89,2.65 10.55,0.58 20.8,0.87 30.77,0.87 9.96,0 17.28,0 21.98,0 31.64,0 63,-2.92 94.07,-8.79 31.06,-5.86 58.91,-16.7 83.53,-32.53 24.62,-15.83 44.25,-37.81 58.9,-65.94 14.66,-28.13 21.98,-65.05 21.98,-110.77 0,-38.69 -7.03,-70.63 -21.1,-95.83 -14.06,-25.2 -32.53,-45.43 -55.39,-60.66 -22.85,-15.24 -48.94,-25.8 -78.24,-31.65 -29.31,-5.86 -59.2,-8.79 -89.68,-8.79zm610.46 847.54l218.03 0 0 -492.34 -218.03 0 0 -193.42 395.63 0 26.38 116.05 7.04 0c32.82,-38.68 70.33,-70.92 112.53,-96.71 42.2,-25.8 91.43,-38.69 147.71,-38.69 70.33,0 125.72,25.8 166.16,77.37 40.44,51.58 60.67,137.74 60.67,258.49l-205.73 0c0,-42.21 -6.15,-72.97 -18.46,-92.32 -12.31,-19.35 -31.94,-29.02 -58.91,-29.02 -46.89,0 -84.7,11.72 -113.42,35.17 -28.72,23.44 -53.04,50.41 -72.97,80.88l0 374.54 381.56 0 0 193.42 -828.19 0 0 -193.42zm1021.91 -246.17c0,-73.85 11.14,-139.5 33.41,-196.94 22.27,-57.44 53.92,-106.09 94.95,-145.95 41.03,-39.85 89.97,-70.04 146.82,-90.55 56.86,-20.51 120.45,-30.77 190.79,-30.77 73.85,0 139.79,11.14 197.81,33.41 58.03,22.28 106.97,53.64 146.82,94.07 39.86,40.44 70.05,89.39 90.56,146.82 20.51,57.44 30.77,120.75 30.77,189.91 0,73.84 -11.14,139.49 -33.41,196.93 -22.28,57.44 -53.92,106.09 -94.95,145.95 -41.03,39.85 -89.98,70.04 -146.82,90.55 -56.86,20.51 -120.45,30.77 -190.79,30.77 -73.85,0 -139.8,-11.14 -197.82,-33.41 -58.03,-22.28 -106.96,-53.64 -146.82,-94.07 -39.85,-40.44 -70.04,-89.39 -90.55,-146.82 -20.51,-57.44 -30.77,-120.75 -30.77,-189.91zm235.62 0c0,38.68 5.27,74.44 15.83,107.25 10.55,32.82 25.79,61.54 45.72,86.16 19.93,24.62 43.96,43.67 72.09,57.15 28.14,13.48 60.37,20.22 96.72,20.22 67.99,0 123.38,-21.68 166.17,-65.06 42.78,-43.37 64.18,-111.95 64.18,-205.72 0,-80.89 -19.93,-146.24 -59.79,-196.06 -39.86,-49.83 -96.71,-74.73 -170.56,-74.73 -32.82,0 -63.31,4.98 -91.43,14.95 -28.14,9.96 -52.47,26.08 -72.98,48.35 -20.51,22.28 -36.63,50.41 -48.35,84.41 -11.72,33.99 -17.58,75.02 -17.58,123.09zm1438.65 196.93c0,-23.44 -14.36,-42.2 -43.08,-56.26 -28.72,-14.07 -64.18,-26.97 -106.38,-38.69 -42.2,-11.72 -88.5,-23.74 -138.92,-36.04 -50.41,-12.31 -96.71,-29.31 -138.91,-50.99 -42.2,-21.69 -77.67,-49.24 -106.39,-82.64 -28.71,-33.41 -43.07,-76.49 -43.07,-129.24 0,-43.38 9.66,-81.47 29.01,-114.3 19.35,-32.82 45.72,-60.66 79.13,-83.53 33.41,-22.85 73.27,-40.15 119.57,-51.87 46.3,-11.72 96.42,-17.58 150.34,-17.58 57.44,0 107.85,4.1 151.22,12.31 43.37,8.21 81.18,18.17 113.42,29.89 32.24,11.72 59.78,24.91 82.64,39.56 22.85,14.66 42.5,27.85 58.91,39.56l-96.72 156.5c-17.58,-10.55 -37.81,-21.39 -60.66,-32.53 -22.86,-11.14 -46.89,-21.4 -72.1,-30.77 -25.2,-9.38 -51.57,-17 -79.13,-22.86 -27.54,-5.86 -54.8,-8.79 -81.76,-8.79 -49.24,0 -89.1,6.45 -119.57,19.35 -30.48,12.89 -45.72,32.82 -45.72,59.79 0,21.1 14.36,38.1 43.08,50.99 28.72,12.89 64.18,24.91 106.38,36.04 42.2,11.14 88.51,23.15 138.92,36.04 50.41,12.89 96.71,29.6 138.91,50.12 42.21,20.51 77.67,47.18 106.39,80.01 28.72,32.82 43.08,75.02 43.08,126.61 0,89.09 -32.54,159.13 -97.6,210.12 -65.05,50.99 -161.47,76.49 -289.25,76.49 -100.82,0 -187.85,-14.95 -261.12,-44.84 -73.27,-29.9 -132.17,-64.77 -176.71,-104.63l105.5 -165.29c15.24,12.89 35.46,27.25 60.67,43.08 25.2,15.82 53.63,30.18 85.28,43.08 31.64,12.89 65.35,23.74 101.11,32.53 35.75,8.79 71.22,13.19 106.38,13.19 37.51,0 69.75,-6.45 96.71,-19.35 26.97,-12.89 40.44,-34.58 40.44,-65.06zm1261.05 149.46c-15.23,14.07 -34.87,27.85 -58.9,41.33 -24.03,13.48 -52.17,26.08 -84.41,37.81 -32.24,11.71 -67.7,21.1 -106.38,28.13 -38.68,7.04 -79.71,10.55 -123.09,10.55 -75.02,0 -142.14,-10.55 -201.33,-31.65 -59.2,-21.1 -109.31,-51.87 -150.34,-92.32 -41.03,-40.44 -72.39,-89.09 -94.07,-145.94 -21.69,-56.86 -32.54,-121.62 -32.54,-194.3 0,-77.37 12.31,-145.07 36.93,-203.1 24.62,-58.03 58.32,-106.38 101.11,-145.07 42.79,-38.68 92.9,-67.7 150.34,-87.03 57.44,-19.35 119.57,-29.02 186.39,-29.02 44.55,0 90.56,5.86 138.03,17.58 47.48,11.72 91.15,31.95 131,60.66 39.86,28.72 72.4,67.11 97.6,115.18 25.2,48.07 37.8,109.02 37.8,182.87 0,50.41 -5.86,104.92 -17.58,163.53l-633.01 0c1.17,37.51 9.08,69.17 23.74,94.95 14.65,25.79 33.99,46.89 58.03,63.3 24.03,16.41 51.57,28.43 82.64,36.04 31.07,7.62 64.18,11.44 99.35,11.44 70.33,0 128.06,-8.21 173.2,-24.62 45.13,-16.41 81.76,-36.34 109.9,-59.79l75.61 149.46zm-379.81 -627.74c-30.48,0 -59.2,4.1 -86.15,12.61 -26.97,8.21 -51.29,20.51 -72.98,36.63 -21.68,16.12 -39.56,36.05 -53.63,60.08 -14.06,23.74 -22.27,50.7 -24.62,80.59l432.56 0c0,-58.61 -16.12,-104.91 -48.35,-138.91 -32.24,-34 -81.19,-51 -146.83,-51zm573.53 527.52l309.48 0 0 -492.34 -309.48 0 0 -193.42 538.06 0 0 685.77 325.3 0 0 193.42 -863.36 0 0 -193.42zm267.28 -924.91c0,-36.34 13.48,-67.4 40.44,-93.2 26.96,-25.79 64.47,-38.68 112.53,-38.68 49.24,0 88.5,12.89 117.81,38.68 29.31,25.8 43.96,56.86 43.96,93.2 0,37.51 -14.65,68.28 -43.96,92.32 -29.31,24.03 -68.57,36.04 -117.81,36.04 -48.07,0 -85.58,-12.01 -112.53,-36.04 -26.97,-24.03 -40.44,-54.8 -40.44,-92.32zm816.18 298.92c46.9,-21.1 101.11,-39.27 162.65,-54.51 61.54,-15.23 134.52,-22.85 218.92,-22.85 60.96,0 112.83,7.32 155.62,21.98 42.78,14.65 77.37,35.46 103.74,62.42 26.38,26.97 45.43,59.2 57.14,96.72 11.72,37.51 17.59,79.71 17.59,126.6 0,59.79 -2.05,110.78 -6.15,152.98 -4.1,42.21 -6.15,79.72 -6.15,112.54 0,24.62 1.17,52.16 3.52,82.64 2.34,16.41 4.1,32.23 5.27,47.47l114.3 0 0 193.42 -295.12 0 -23.16 -119.57 -8.79 0c-23.15,36.34 -56.56,67.7 -99.64,94.07 -43.08,26.38 -101.39,39.56 -174.66,39.56 -87.33,0 -156.79,-23.44 -208.08,-70.33 -51.28,-46.89 -76.78,-109.02 -76.78,-186.39 0,-49.24 9.09,-91.73 26.96,-127.48 18.18,-35.76 44.26,-65.06 78.84,-87.92 34.29,-22.86 75.61,-39.86 123.97,-51 48.35,-11.14 102.28,-16.7 161.47,-16.7 21.1,0 43.08,1.17 66.53,3.51 23.15,2.35 51.87,4.7 85.57,7.04 2.35,-11.72 3.52,-23.44 3.52,-35.16l0 -33.41c0,-44.55 -12.89,-76.49 -38.38,-95.83 -25.5,-19.35 -63.31,-29.02 -113.42,-29.02 -59.49,0 -112.83,7.62 -160.6,22.86 -47.77,15.24 -87.93,30.48 -120.45,45.72l-54.22 -179.36zm299.22 645.33c55.69,0 97.3,-10.26 125.14,-30.77 27.84,-20.51 48.35,-42.5 60.96,-65.94l0 -105.5c-11.72,-2.35 -29.02,-4.98 -52.17,-7.92 -23.15,-2.92 -48.06,-4.39 -74.73,-4.39 -21.98,0 -43.96,2.05 -66.23,6.15 -21.98,4.1 -41.61,10.55 -58.91,19.35 -17.58,8.79 -31.36,20.22 -41.91,34.28 -10.26,14.07 -15.53,31.07 -15.53,51 0,32.82 9.67,58.31 28.72,76.49 19.05,18.17 50.7,27.25 94.66,27.25z"/>
  </g>
 </g>
</svg>
