<?xml version="1.0" encoding="UTF-8"?>
<svg xmlns="http://www.w3.org/2000/svg" xmlns:xlink="http://www.w3.org/1999/xlink" width="174pt" height="32pt" viewBox="0 0 174 32" version="1.1">
<g id="surface1">
<path style=" stroke:none;fill-rule:nonzero;fill:rgb(40%,40%,80%);fill-opacity:1;" d="M 0 1.296875 C 1.214844 1.0625 2.550781 0.882812 4.007812 0.753906 C 5.46875 0.621094 6.921875 0.558594 8.363281 0.558594 C 9.867188 0.558594 11.375 0.679688 12.894531 0.925781 C 14.410156 1.171875 15.777344 1.664062 16.988281 2.402344 C 18.203125 3.140625 19.191406 4.171875 19.957031 5.488281 C 20.722656 6.804688 21.105469 8.523438 21.105469 10.636719 C 21.105469 12.492188 20.773438 14.078125 20.109375 15.394531 C 19.445312 16.710938 18.5625 17.796875 17.464844 18.652344 C 16.367188 19.507812 15.117188 20.128906 13.71875 20.523438 C 12.316406 20.914062 10.863281 21.109375 9.363281 21.109375 C 9.21875 21.109375 8.984375 21.109375 8.667969 21.109375 C 8.351562 21.109375 8.019531 21.101562 7.671875 21.085938 C 7.324219 21.070312 6.984375 21.050781 6.652344 21.019531 C 6.320312 20.992188 6.082031 20.964844 5.9375 20.933594 L 5.9375 31.40625 L 0 31.40625 Z M 8.839844 5.683594 C 8.261719 5.683594 7.714844 5.707031 7.195312 5.75 C 6.675781 5.792969 6.253906 5.84375 5.9375 5.902344 L 5.9375 15.765625 C 6.054688 15.792969 6.226562 15.820312 6.457031 15.851562 C 6.6875 15.878906 6.933594 15.902344 7.195312 15.917969 C 7.453125 15.929688 7.707031 15.9375 7.953125 15.9375 C 8.199219 15.9375 8.378906 15.9375 8.496094 15.9375 C 9.273438 15.9375 10.046875 15.867188 10.8125 15.71875 C 11.578125 15.574219 12.265625 15.308594 12.871094 14.917969 C 13.480469 14.527344 13.960938 13.984375 14.324219 13.289062 C 14.683594 12.59375 14.867188 11.679688 14.867188 10.550781 C 14.867188 9.59375 14.691406 8.804688 14.34375 8.183594 C 14 7.558594 13.542969 7.058594 12.980469 6.683594 C 12.417969 6.308594 11.773438 6.046875 11.050781 5.902344 C 10.328125 5.757812 9.59375 5.683594 8.839844 5.683594 Z M 23.886719 26.625 L 29.261719 26.625 L 29.261719 14.460938 L 23.886719 14.460938 L 23.886719 9.679688 L 33.640625 9.679688 L 34.289062 12.550781 L 34.464844 12.550781 C 35.273438 11.59375 36.195312 10.796875 37.238281 10.160156 C 38.277344 9.523438 39.492188 9.203125 40.878906 9.203125 C 42.609375 9.203125 43.976562 9.839844 44.972656 11.113281 C 45.96875 12.390625 46.46875 14.519531 46.46875 17.503906 L 41.398438 17.503906 C 41.398438 16.460938 41.246094 15.699219 40.941406 15.222656 C 40.640625 14.742188 40.15625 14.503906 39.492188 14.503906 C 38.335938 14.503906 37.402344 14.792969 36.695312 15.371094 C 35.988281 15.953125 35.386719 16.617188 34.898438 17.371094 L 34.898438 26.625 L 44.300781 26.625 L 44.300781 31.40625 L 23.886719 31.40625 Z M 49.078125 20.542969 C 49.078125 18.71875 49.351562 17.097656 49.898438 15.675781 C 50.449219 14.257812 51.230469 13.054688 52.238281 12.070312 C 53.25 11.085938 54.457031 10.339844 55.859375 9.832031 C 57.261719 9.328125 58.828125 9.074219 60.5625 9.074219 C 62.382812 9.074219 64.007812 9.347656 65.4375 9.898438 C 66.867188 10.449219 68.074219 11.222656 69.054688 12.222656 C 70.039062 13.222656 70.78125 14.433594 71.289062 15.851562 C 71.792969 17.269531 72.046875 18.835938 72.046875 20.542969 C 72.046875 22.367188 71.773438 23.988281 71.222656 25.410156 C 70.675781 26.828125 69.894531 28.03125 68.882812 29.015625 C 67.871094 30 66.664062 30.746094 65.265625 31.253906 C 63.863281 31.757812 62.296875 32.011719 60.5625 32.011719 C 58.742188 32.011719 57.117188 31.738281 55.683594 31.1875 C 54.253906 30.636719 53.050781 29.863281 52.066406 28.863281 C 51.085938 27.863281 50.339844 26.65625 49.835938 25.234375 C 49.328125 23.816406 49.078125 22.25 49.078125 20.542969 Z M 54.882812 20.542969 C 54.882812 21.5 55.015625 22.382812 55.273438 23.191406 C 55.535156 24.003906 55.910156 24.714844 56.402344 25.320312 C 56.890625 25.929688 57.484375 26.402344 58.179688 26.734375 C 58.871094 27.066406 59.664062 27.234375 60.5625 27.234375 C 62.238281 27.234375 63.601562 26.699219 64.65625 25.625 C 65.710938 24.554688 66.238281 22.859375 66.238281 20.542969 C 66.238281 18.542969 65.75 16.929688 64.765625 15.699219 C 63.785156 14.46875 62.382812 13.851562 60.5625 13.851562 C 59.753906 13.851562 59 13.976562 58.308594 14.222656 C 57.613281 14.46875 57.015625 14.867188 56.507812 15.417969 C 56.003906 15.96875 55.605469 16.660156 55.316406 17.503906 C 55.027344 18.34375 54.882812 19.355469 54.882812 20.542969 Z M 90.34375 25.410156 C 90.34375 24.828125 89.988281 24.367188 89.28125 24.019531 C 88.574219 23.671875 87.699219 23.351562 86.660156 23.0625 C 85.621094 22.773438 84.476562 22.476562 83.234375 22.171875 C 81.992188 21.867188 80.851562 21.449219 79.8125 20.914062 C 78.773438 20.375 77.898438 19.695312 77.191406 18.871094 C 76.480469 18.046875 76.128906 16.980469 76.128906 15.675781 C 76.128906 14.605469 76.367188 13.664062 76.84375 12.851562 C 77.320312 12.042969 77.96875 11.355469 78.792969 10.789062 C 79.617188 10.222656 80.597656 9.796875 81.742188 9.507812 C 82.882812 9.21875 84.117188 9.074219 85.445312 9.074219 C 86.863281 9.074219 88.105469 9.175781 89.171875 9.378906 C 90.242188 9.578125 91.175781 9.824219 91.96875 10.117188 C 92.765625 10.40625 93.441406 10.730469 94.007812 11.09375 C 94.570312 11.457031 95.054688 11.78125 95.457031 12.070312 L 93.074219 15.9375 C 92.640625 15.675781 92.140625 15.410156 91.578125 15.132812 C 91.015625 14.859375 90.421875 14.605469 89.800781 14.375 C 89.179688 14.140625 88.53125 13.953125 87.851562 13.808594 C 87.171875 13.664062 86.5 13.589844 85.835938 13.589844 C 84.621094 13.589844 83.640625 13.75 82.890625 14.070312 C 82.136719 14.386719 81.761719 14.878906 81.761719 15.546875 C 81.761719 16.070312 82.117188 16.488281 82.824219 16.808594 C 83.53125 17.125 84.40625 17.421875 85.445312 17.699219 C 86.484375 17.972656 87.628906 18.269531 88.871094 18.589844 C 90.113281 18.90625 91.253906 19.320312 92.292969 19.828125 C 93.335938 20.332031 94.207031 20.992188 94.917969 21.804688 C 95.625 22.613281 95.976562 23.65625 95.976562 24.933594 C 95.976562 27.132812 95.175781 28.863281 93.574219 30.125 C 91.96875 31.382812 89.59375 32.015625 86.441406 32.015625 C 83.957031 32.015625 81.8125 31.644531 80.007812 30.90625 C 78.199219 30.167969 76.75 29.304688 75.652344 28.320312 L 78.25 24.234375 C 78.628906 24.554688 79.125 24.910156 79.746094 25.300781 C 80.367188 25.691406 81.070312 26.046875 81.847656 26.363281 C 82.628906 26.683594 83.460938 26.953125 84.339844 27.167969 C 85.222656 27.386719 86.097656 27.496094 86.964844 27.496094 C 87.886719 27.496094 88.683594 27.335938 89.347656 27.015625 C 90.011719 26.699219 90.34375 26.164062 90.34375 25.410156 Z M 121.425781 29.101562 C 121.050781 29.449219 120.566406 29.789062 119.972656 30.125 C 119.382812 30.457031 118.6875 30.769531 117.894531 31.058594 C 117.097656 31.347656 116.226562 31.578125 115.273438 31.753906 C 114.320312 31.925781 113.308594 32.011719 112.238281 32.011719 C 110.390625 32.011719 108.734375 31.753906 107.277344 31.230469 C 105.816406 30.710938 104.582031 29.949219 103.570312 28.949219 C 102.558594 27.949219 101.785156 26.75 101.25 25.34375 C 100.714844 23.9375 100.449219 22.339844 100.449219 20.542969 C 100.449219 18.632812 100.753906 16.957031 101.359375 15.523438 C 101.964844 14.089844 102.796875 12.894531 103.851562 11.941406 C 104.90625 10.984375 106.140625 10.265625 107.558594 9.789062 C 108.972656 9.3125 110.503906 9.074219 112.152344 9.074219 C 113.25 9.074219 114.382812 9.21875 115.554688 9.507812 C 116.722656 9.796875 117.800781 10.296875 118.78125 11.007812 C 119.765625 11.714844 120.566406 12.664062 121.1875 13.851562 C 121.808594 15.039062 122.121094 16.546875 122.121094 18.371094 C 122.121094 19.617188 121.976562 20.964844 121.6875 22.410156 L 106.085938 22.410156 C 106.113281 23.339844 106.308594 24.121094 106.667969 24.757812 C 107.03125 25.394531 107.507812 25.914062 108.097656 26.320312 C 108.691406 26.726562 109.371094 27.023438 110.136719 27.210938 C 110.902344 27.398438 111.71875 27.496094 112.585938 27.496094 C 114.320312 27.496094 115.742188 27.292969 116.855469 26.886719 C 117.964844 26.480469 118.871094 25.988281 119.5625 25.410156 Z M 112.066406 13.589844 C 111.3125 13.589844 110.605469 13.691406 109.941406 13.902344 C 109.277344 14.105469 108.675781 14.410156 108.140625 14.808594 C 107.609375 15.207031 107.167969 15.699219 106.820312 16.292969 C 106.472656 16.878906 106.273438 17.546875 106.214844 18.285156 L 116.875 18.285156 C 116.875 16.835938 116.476562 15.691406 115.683594 14.851562 C 114.890625 14.011719 113.683594 13.589844 112.066406 13.589844 Z M 126.199219 26.625 L 133.828125 26.625 L 133.828125 14.460938 L 126.199219 14.460938 L 126.199219 9.679688 L 139.464844 9.679688 L 139.464844 26.625 L 147.480469 26.625 L 147.480469 31.40625 L 126.199219 31.40625 Z M 132.789062 3.773438 C 132.789062 2.875 133.121094 2.105469 133.785156 1.46875 C 134.449219 0.832031 135.375 0.511719 136.558594 0.511719 C 137.773438 0.511719 138.742188 0.832031 139.464844 1.46875 C 140.1875 2.105469 140.546875 2.875 140.546875 3.773438 C 140.546875 4.699219 140.1875 5.460938 139.464844 6.054688 C 138.742188 6.648438 137.773438 6.945312 136.558594 6.945312 C 135.375 6.945312 134.449219 6.648438 133.785156 6.054688 C 133.121094 5.460938 132.789062 4.699219 132.789062 3.773438 Z M 152.90625 11.15625 C 154.0625 10.636719 155.398438 10.1875 156.914062 9.8125 C 158.433594 9.433594 160.230469 9.246094 162.3125 9.246094 C 163.8125 9.246094 165.09375 9.425781 166.148438 9.789062 C 167.203125 10.152344 168.054688 10.664062 168.703125 11.332031 C 169.355469 12 169.824219 12.796875 170.113281 13.722656 C 170.402344 14.648438 170.546875 15.691406 170.546875 16.851562 C 170.546875 18.328125 170.496094 19.585938 170.394531 20.628906 C 170.292969 21.671875 170.242188 22.601562 170.242188 23.410156 C 170.242188 24.019531 170.269531 24.699219 170.328125 25.453125 C 170.386719 25.859375 170.429688 26.25 170.460938 26.625 L 173.277344 26.625 L 173.277344 31.40625 L 166.003906 31.40625 L 165.429688 28.449219 L 165.214844 28.449219 C 164.644531 29.347656 163.820312 30.125 162.757812 30.773438 C 161.695312 31.425781 160.261719 31.753906 158.453125 31.753906 C 156.300781 31.753906 154.589844 31.171875 153.324219 30.015625 C 152.0625 28.855469 151.433594 27.320312 151.433594 25.410156 C 151.433594 24.191406 151.65625 23.144531 152.097656 22.257812 C 152.546875 21.375 153.1875 20.652344 154.039062 20.085938 C 154.886719 19.523438 155.902344 19.101562 157.097656 18.828125 C 158.289062 18.550781 159.617188 18.414062 161.074219 18.414062 C 161.597656 18.414062 162.136719 18.441406 162.714844 18.5 C 163.285156 18.558594 163.996094 18.617188 164.824219 18.675781 C 164.882812 18.386719 164.910156 18.09375 164.910156 17.804688 L 164.910156 16.980469 C 164.910156 15.878906 164.59375 15.089844 163.964844 14.613281 C 163.335938 14.132812 162.40625 13.894531 161.171875 13.894531 C 159.703125 13.894531 158.390625 14.082031 157.210938 14.460938 C 156.035156 14.835938 155.042969 15.214844 154.242188 15.589844 Z M 160.28125 27.105469 C 161.652344 27.105469 162.679688 26.851562 163.367188 26.34375 C 164.050781 25.835938 164.558594 25.292969 164.867188 24.714844 L 164.867188 22.105469 C 164.578125 22.050781 164.152344 21.984375 163.582031 21.910156 C 163.011719 21.839844 162.398438 21.804688 161.742188 21.804688 C 161.199219 21.804688 160.65625 21.855469 160.109375 21.957031 C 159.566406 22.054688 159.082031 22.214844 158.65625 22.433594 C 158.222656 22.652344 157.882812 22.933594 157.625 23.28125 C 157.371094 23.628906 157.242188 24.046875 157.242188 24.539062 C 157.242188 25.351562 157.480469 25.980469 157.949219 26.429688 C 158.417969 26.878906 159.199219 27.105469 160.28125 27.105469 Z M 160.28125 27.105469 "/>
<path style=" stroke:none;fill-rule:nonzero;fill:rgb(99.215686%,37.254902%,49.019608%);fill-opacity:1;" d="M 0.511719 0.78125 C 1.726562 0.550781 3.0625 0.371094 4.519531 0.238281 C 5.980469 0.109375 7.433594 0.0429688 8.875 0.0429688 C 10.378906 0.0429688 11.890625 0.167969 13.40625 0.414062 C 14.921875 0.660156 16.289062 1.152344 17.5 1.890625 C 18.714844 2.628906 19.703125 3.65625 20.46875 4.976562 C 21.234375 6.292969 21.617188 8.007812 21.617188 10.125 C 21.617188 11.976562 21.285156 13.5625 20.621094 14.882812 C 19.957031 16.199219 19.078125 17.285156 17.976562 18.140625 C 16.878906 18.996094 15.628906 19.617188 14.230469 20.007812 C 12.828125 20.398438 11.375 20.59375 9.875 20.59375 C 9.730469 20.59375 9.496094 20.59375 9.179688 20.59375 C 8.863281 20.59375 8.53125 20.585938 8.183594 20.574219 C 7.835938 20.558594 7.496094 20.535156 7.164062 20.507812 C 6.832031 20.480469 6.59375 20.449219 6.449219 20.421875 L 6.449219 30.890625 L 0.511719 30.890625 Z M 9.351562 5.171875 C 8.777344 5.171875 8.226562 5.191406 7.707031 5.234375 C 7.1875 5.277344 6.765625 5.328125 6.449219 5.386719 L 6.449219 15.25 C 6.566406 15.28125 6.738281 15.308594 6.96875 15.335938 C 7.199219 15.367188 7.445312 15.386719 7.707031 15.402344 C 7.964844 15.417969 8.21875 15.425781 8.464844 15.425781 C 8.710938 15.425781 8.890625 15.425781 9.007812 15.425781 C 9.785156 15.425781 10.558594 15.351562 11.324219 15.207031 C 12.089844 15.0625 12.777344 14.792969 13.382812 14.402344 C 13.992188 14.011719 14.476562 13.46875 14.835938 12.773438 C 15.195312 12.078125 15.378906 11.167969 15.378906 10.035156 C 15.378906 9.082031 15.203125 8.292969 14.859375 7.667969 C 14.511719 7.046875 14.054688 6.546875 13.492188 6.171875 C 12.929688 5.792969 12.285156 5.53125 11.5625 5.386719 C 10.839844 5.242188 10.105469 5.171875 9.351562 5.171875 Z M 24.398438 26.113281 L 29.773438 26.113281 L 29.773438 13.945312 L 24.398438 13.945312 L 24.398438 9.167969 L 34.152344 9.167969 L 34.800781 12.035156 L 34.976562 12.035156 C 35.785156 11.078125 36.707031 10.28125 37.75 9.644531 C 38.789062 9.007812 40.003906 8.691406 41.390625 8.691406 C 43.125 8.691406 44.488281 9.328125 45.484375 10.601562 C 46.480469 11.875 46.980469 14.003906 46.980469 16.988281 L 41.910156 16.988281 C 41.910156 15.945312 41.757812 15.1875 41.453125 14.707031 C 41.152344 14.230469 40.667969 13.992188 40.003906 13.992188 C 38.847656 13.992188 37.914062 14.28125 37.207031 14.859375 C 36.5 15.4375 35.898438 16.105469 35.410156 16.859375 L 35.410156 26.113281 L 44.8125 26.113281 L 44.8125 30.890625 L 24.398438 30.890625 Z M 49.589844 20.03125 C 49.589844 18.203125 49.863281 16.582031 50.410156 15.164062 C 50.960938 13.746094 51.742188 12.542969 52.753906 11.558594 C 53.761719 10.574219 54.96875 9.828125 56.371094 9.320312 C 57.773438 8.8125 59.339844 8.558594 61.074219 8.558594 C 62.894531 8.558594 64.519531 8.835938 65.949219 9.386719 C 67.378906 9.9375 68.585938 10.710938 69.566406 11.710938 C 70.550781 12.707031 71.292969 13.917969 71.800781 15.335938 C 72.304688 16.757812 72.558594 18.320312 72.558594 20.03125 C 72.558594 21.855469 72.285156 23.476562 71.734375 24.894531 C 71.1875 26.316406 70.40625 27.515625 69.394531 28.503906 C 68.382812 29.488281 67.175781 30.234375 65.777344 30.738281 C 64.375 31.246094 62.808594 31.5 61.074219 31.5 C 59.253906 31.5 57.628906 31.222656 56.199219 30.675781 C 54.765625 30.125 53.5625 29.347656 52.578125 28.351562 C 51.597656 27.351562 50.851562 26.140625 50.347656 24.722656 C 49.839844 23.304688 49.589844 21.738281 49.589844 20.03125 Z M 55.394531 20.03125 C 55.394531 20.984375 55.527344 21.867188 55.785156 22.679688 C 56.046875 23.492188 56.421875 24.199219 56.914062 24.808594 C 57.402344 25.417969 57.996094 25.886719 58.691406 26.222656 C 59.382812 26.554688 60.175781 26.71875 61.074219 26.71875 C 62.75 26.71875 64.113281 26.183594 65.167969 25.113281 C 66.222656 24.042969 66.75 22.347656 66.75 20.03125 C 66.75 18.03125 66.261719 16.417969 65.277344 15.183594 C 64.296875 13.953125 62.894531 13.339844 61.074219 13.339844 C 60.265625 13.339844 59.511719 13.460938 58.820312 13.707031 C 58.125 13.953125 57.527344 14.351562 57.019531 14.902344 C 56.515625 15.453125 56.117188 16.148438 55.828125 16.988281 C 55.539062 17.828125 55.394531 18.84375 55.394531 20.03125 Z M 90.855469 24.894531 C 90.855469 24.316406 90.5 23.851562 89.792969 23.503906 C 89.085938 23.15625 88.210938 22.839844 87.171875 22.550781 C 86.132812 22.261719 84.992188 21.964844 83.746094 21.660156 C 82.503906 21.355469 81.363281 20.933594 80.324219 20.398438 C 79.285156 19.863281 78.410156 19.183594 77.703125 18.355469 C 76.992188 17.53125 76.640625 16.46875 76.640625 15.164062 C 76.640625 14.09375 76.878906 13.152344 77.355469 12.339844 C 77.832031 11.527344 78.480469 10.839844 79.304688 10.277344 C 80.128906 9.710938 81.109375 9.285156 82.253906 8.992188 C 83.394531 8.703125 84.628906 8.558594 85.957031 8.558594 C 87.375 8.558594 88.617188 8.660156 89.683594 8.863281 C 90.753906 9.066406 91.6875 9.3125 92.480469 9.601562 C 93.277344 9.890625 93.953125 10.21875 94.519531 10.578125 C 95.082031 10.941406 95.566406 11.269531 95.96875 11.558594 L 93.585938 15.425781 C 93.152344 15.164062 92.652344 14.894531 92.089844 14.621094 C 91.527344 14.34375 90.933594 14.089844 90.3125 13.859375 C 89.691406 13.628906 89.042969 13.441406 88.363281 13.296875 C 87.683594 13.152344 87.011719 13.078125 86.347656 13.078125 C 85.132812 13.078125 84.152344 13.238281 83.402344 13.554688 C 82.648438 13.875 82.273438 14.367188 82.273438 15.035156 C 82.273438 15.554688 82.628906 15.976562 83.335938 16.292969 C 84.042969 16.613281 84.917969 16.910156 85.957031 17.183594 C 86.996094 17.460938 88.140625 17.757812 89.382812 18.074219 C 90.625 18.394531 91.765625 18.804688 92.804688 19.3125 C 93.847656 19.820312 94.71875 20.480469 95.429688 21.289062 C 96.136719 22.101562 96.488281 23.144531 96.488281 24.417969 C 96.488281 26.621094 95.6875 28.351562 94.085938 29.609375 C 92.480469 30.871094 90.105469 31.5 86.953125 31.5 C 84.46875 31.5 82.324219 31.132812 80.519531 30.390625 C 78.710938 29.652344 77.261719 28.792969 76.164062 27.808594 L 78.761719 23.722656 C 79.140625 24.042969 79.636719 24.394531 80.257812 24.789062 C 80.878906 25.179688 81.582031 25.53125 82.359375 25.851562 C 83.140625 26.171875 83.972656 26.4375 84.851562 26.65625 C 85.734375 26.871094 86.609375 26.980469 87.476562 26.980469 C 88.398438 26.980469 89.195312 26.820312 89.859375 26.503906 C 90.523438 26.183594 90.855469 25.648438 90.855469 24.894531 Z M 121.9375 28.589844 C 121.5625 28.9375 121.078125 29.277344 120.488281 29.609375 C 119.894531 29.941406 119.199219 30.253906 118.40625 30.542969 C 117.609375 30.832031 116.738281 31.066406 115.785156 31.238281 C 114.832031 31.414062 113.820312 31.5 112.75 31.5 C 110.902344 31.5 109.246094 31.238281 107.789062 30.71875 C 106.328125 30.195312 105.09375 29.4375 104.082031 28.4375 C 103.070312 27.4375 102.296875 26.234375 101.761719 24.832031 C 101.230469 23.425781 100.960938 21.824219 100.960938 20.03125 C 100.960938 18.117188 101.265625 16.445312 101.871094 15.011719 C 102.476562 13.578125 103.308594 12.382812 104.363281 11.425781 C 105.417969 10.472656 106.652344 9.753906 108.070312 9.277344 C 109.484375 8.796875 111.015625 8.558594 112.664062 8.558594 C 113.761719 8.558594 114.894531 8.703125 116.066406 8.992188 C 117.234375 9.285156 118.3125 9.78125 119.292969 10.492188 C 120.277344 11.203125 121.078125 12.152344 121.699219 13.339844 C 122.320312 14.527344 122.632812 16.03125 122.632812 17.855469 C 122.632812 19.101562 122.488281 20.449219 122.199219 21.898438 L 106.597656 21.898438 C 106.625 22.824219 106.820312 23.605469 107.179688 24.242188 C 107.542969 24.882812 108.019531 25.402344 108.613281 25.808594 C 109.203125 26.214844 109.882812 26.511719 110.648438 26.699219 C 111.414062 26.886719 112.230469 26.980469 113.097656 26.980469 C 114.832031 26.980469 116.253906 26.777344 117.367188 26.371094 C 118.476562 25.96875 119.382812 25.476562 120.074219 24.894531 Z M 112.578125 13.078125 C 111.824219 13.078125 111.117188 13.179688 110.453125 13.390625 C 109.789062 13.59375 109.1875 13.894531 108.652344 14.292969 C 108.121094 14.691406 107.679688 15.183594 107.332031 15.777344 C 106.984375 16.367188 106.785156 17.03125 106.726562 17.769531 L 117.386719 17.769531 C 117.386719 16.320312 116.988281 15.179688 116.195312 14.339844 C 115.402344 13.496094 114.195312 13.078125 112.578125 13.078125 Z M 126.714844 26.113281 L 134.339844 26.113281 L 134.339844 13.945312 L 126.714844 13.945312 L 126.714844 9.167969 L 139.976562 9.167969 L 139.976562 26.113281 L 147.992188 26.113281 L 147.992188 30.890625 L 126.714844 30.890625 Z M 133.300781 3.257812 C 133.300781 2.359375 133.632812 1.59375 134.296875 0.957031 C 134.960938 0.320312 135.886719 0 137.070312 0 C 138.285156 0 139.253906 0.320312 139.976562 0.957031 C 140.699219 1.59375 141.058594 2.359375 141.058594 3.257812 C 141.058594 4.183594 140.699219 4.945312 139.976562 5.539062 C 139.253906 6.132812 138.285156 6.429688 137.070312 6.429688 C 135.886719 6.429688 134.960938 6.132812 134.296875 5.539062 C 133.632812 4.945312 133.300781 4.1875 133.300781 3.257812 Z M 153.417969 10.644531 C 154.574219 10.125 155.910156 9.675781 157.425781 9.296875 C 158.945312 8.921875 160.742188 8.734375 162.824219 8.734375 C 164.324219 8.734375 165.605469 8.914062 166.660156 9.277344 C 167.714844 9.636719 168.566406 10.152344 169.214844 10.820312 C 169.867188 11.484375 170.335938 12.28125 170.625 13.207031 C 170.914062 14.136719 171.058594 15.179688 171.058594 16.335938 C 171.058594 17.8125 171.007812 19.074219 170.90625 20.117188 C 170.804688 21.160156 170.753906 22.085938 170.753906 22.898438 C 170.753906 23.507812 170.785156 24.1875 170.839844 24.941406 C 170.898438 25.34375 170.941406 25.734375 170.972656 26.113281 L 173.789062 26.113281 L 173.789062 30.890625 L 166.515625 30.890625 L 165.945312 27.9375 L 165.726562 27.9375 C 165.15625 28.835938 164.332031 29.609375 163.269531 30.261719 C 162.210938 30.914062 160.773438 31.238281 158.964844 31.238281 C 156.8125 31.238281 155.101562 30.660156 153.835938 29.5 C 152.574219 28.34375 151.945312 26.808594 151.945312 24.894531 C 151.945312 23.679688 152.167969 22.628906 152.609375 21.746094 C 153.058594 20.863281 153.699219 20.136719 154.550781 19.574219 C 155.398438 19.007812 156.417969 18.589844 157.609375 18.3125 C 158.800781 18.039062 160.128906 17.902344 161.589844 17.902344 C 162.109375 17.902344 162.648438 17.929688 163.226562 17.988281 C 163.796875 18.046875 164.507812 18.101562 165.335938 18.160156 C 165.394531 17.871094 165.421875 17.582031 165.421875 17.292969 L 165.421875 16.46875 C 165.421875 15.367188 165.105469 14.578125 164.476562 14.097656 C 163.847656 13.621094 162.917969 13.382812 161.683594 13.382812 C 160.214844 13.382812 158.902344 13.570312 157.722656 13.945312 C 156.546875 14.324219 155.554688 14.699219 154.753906 15.078125 Z M 160.792969 26.589844 C 162.164062 26.589844 163.191406 26.335938 163.878906 25.828125 C 164.5625 25.324219 165.070312 24.78125 165.378906 24.199219 L 165.378906 21.59375 C 165.089844 21.535156 164.664062 21.472656 164.09375 21.398438 C 163.523438 21.324219 162.910156 21.289062 162.253906 21.289062 C 161.710938 21.289062 161.167969 21.339844 160.621094 21.441406 C 160.078125 21.542969 159.59375 21.703125 159.167969 21.917969 C 158.734375 22.136719 158.394531 22.417969 158.136719 22.765625 C 157.882812 23.113281 157.753906 23.535156 157.753906 24.027344 C 157.753906 24.839844 157.992188 25.46875 158.460938 25.917969 C 158.929688 26.367188 159.710938 26.589844 160.792969 26.589844 Z M 160.792969 26.589844 "/>
</g>
</svg>
